<svg width="400" height="402" viewBox="0 0 400 402" fill="none" xmlns="http://www.w3.org/2000/svg">
<path d="M187.465 7.26404C195.218 2.77128 204.782 2.77129 212.535 7.26405L360.74 93.1496C368.455 97.6206 373.205 105.863 373.205 114.78V286.713C373.205 295.63 368.455 303.872 360.74 308.343L212.535 394.228C204.782 398.721 195.218 398.721 187.465 394.228L39.26 308.343C31.5446 303.872 26.7949 295.63 26.7949 286.713V114.78C26.7949 105.863 31.5447 97.6206 39.26 93.1496L187.465 7.26404Z" fill="#DB8B47"/>
<path d="M118.266 185.898L106.969 217H102.352L115.359 182.875H118.336L118.266 185.898ZM127.734 217L116.414 185.898L116.344 182.875H119.32L132.375 217H127.734ZM127.148 204.367V208.07H107.977V204.367H127.148ZM136.266 181H140.625V212.078L140.25 217H136.266V181ZM157.758 204.109V204.602C157.758 206.445 157.539 208.156 157.102 209.734C156.664 211.297 156.023 212.656 155.18 213.812C154.336 214.969 153.305 215.867 152.086 216.508C150.867 217.148 149.469 217.469 147.891 217.469C146.281 217.469 144.867 217.195 143.648 216.648C142.445 216.086 141.43 215.281 140.602 214.234C139.773 213.188 139.109 211.922 138.609 210.438C138.125 208.953 137.789 207.281 137.602 205.422V203.266C137.789 201.391 138.125 199.711 138.609 198.227C139.109 196.742 139.773 195.477 140.602 194.43C141.43 193.367 142.445 192.562 143.648 192.016C144.852 191.453 146.25 191.172 147.844 191.172C149.438 191.172 150.852 191.484 152.086 192.109C153.32 192.719 154.352 193.594 155.18 194.734C156.023 195.875 156.664 197.242 157.102 198.836C157.539 200.414 157.758 202.172 157.758 204.109ZM153.398 204.602V204.109C153.398 202.844 153.281 201.656 153.047 200.547C152.812 199.422 152.438 198.438 151.922 197.594C151.406 196.734 150.727 196.062 149.883 195.578C149.039 195.078 148 194.828 146.766 194.828C145.672 194.828 144.719 195.016 143.906 195.391C143.109 195.766 142.43 196.273 141.867 196.914C141.305 197.539 140.844 198.258 140.484 199.07C140.141 199.867 139.883 200.695 139.711 201.555V207.203C139.961 208.297 140.367 209.352 140.93 210.367C141.508 211.367 142.273 212.188 143.227 212.828C144.195 213.469 145.391 213.789 146.812 213.789C147.984 213.789 148.984 213.555 149.812 213.086C150.656 212.602 151.336 211.938 151.852 211.094C152.383 210.25 152.773 209.273 153.023 208.164C153.273 207.055 153.398 205.867 153.398 204.602ZM162.094 204.602V204.062C162.094 202.234 162.359 200.539 162.891 198.977C163.422 197.398 164.188 196.031 165.188 194.875C166.188 193.703 167.398 192.797 168.82 192.156C170.242 191.5 171.836 191.172 173.602 191.172C175.383 191.172 176.984 191.5 178.406 192.156C179.844 192.797 181.062 193.703 182.062 194.875C183.078 196.031 183.852 197.398 184.383 198.977C184.914 200.539 185.18 202.234 185.18 204.062V204.602C185.18 206.43 184.914 208.125 184.383 209.688C183.852 211.25 183.078 212.617 182.062 213.789C181.062 214.945 179.852 215.852 178.43 216.508C177.023 217.148 175.43 217.469 173.648 217.469C171.867 217.469 170.266 217.148 168.844 216.508C167.422 215.852 166.203 214.945 165.188 213.789C164.188 212.617 163.422 211.25 162.891 209.688C162.359 208.125 162.094 206.43 162.094 204.602ZM166.43 204.062V204.602C166.43 205.867 166.578 207.062 166.875 208.188C167.172 209.297 167.617 210.281 168.211 211.141C168.82 212 169.578 212.68 170.484 213.18C171.391 213.664 172.445 213.906 173.648 213.906C174.836 213.906 175.875 213.664 176.766 213.18C177.672 212.68 178.422 212 179.016 211.141C179.609 210.281 180.055 209.297 180.352 208.188C180.664 207.062 180.82 205.867 180.82 204.602V204.062C180.82 202.812 180.664 201.633 180.352 200.523C180.055 199.398 179.602 198.406 178.992 197.547C178.398 196.672 177.648 195.984 176.742 195.484C175.852 194.984 174.805 194.734 173.602 194.734C172.414 194.734 171.367 194.984 170.461 195.484C169.57 195.984 168.82 196.672 168.211 197.547C167.617 198.406 167.172 199.398 166.875 200.523C166.578 201.633 166.43 202.812 166.43 204.062ZM206.133 211.141V191.641H210.492V217H206.344L206.133 211.141ZM206.953 205.797L208.758 205.75C208.758 207.438 208.578 209 208.219 210.438C207.875 211.859 207.312 213.094 206.531 214.141C205.75 215.188 204.727 216.008 203.461 216.602C202.195 217.18 200.656 217.469 198.844 217.469C197.609 217.469 196.477 217.289 195.445 216.93C194.43 216.57 193.555 216.016 192.82 215.266C192.086 214.516 191.516 213.539 191.109 212.336C190.719 211.133 190.523 209.688 190.523 208V191.641H194.859V208.047C194.859 209.188 194.984 210.133 195.234 210.883C195.5 211.617 195.852 212.203 196.289 212.641C196.742 213.062 197.242 213.359 197.789 213.531C198.352 213.703 198.93 213.789 199.523 213.789C201.367 213.789 202.828 213.438 203.906 212.734C204.984 212.016 205.758 211.055 206.227 209.852C206.711 208.633 206.953 207.281 206.953 205.797ZM227.719 191.641V194.969H214.008V191.641H227.719ZM218.648 185.477H222.984V210.719C222.984 211.578 223.117 212.227 223.383 212.664C223.648 213.102 223.992 213.391 224.414 213.531C224.836 213.672 225.289 213.742 225.773 213.742C226.133 213.742 226.508 213.711 226.898 213.648C227.305 213.57 227.609 213.508 227.812 213.461L227.836 217C227.492 217.109 227.039 217.211 226.477 217.305C225.93 217.414 225.266 217.469 224.484 217.469C223.422 217.469 222.445 217.258 221.555 216.836C220.664 216.414 219.953 215.711 219.422 214.727C218.906 213.727 218.648 212.383 218.648 210.695V185.477ZM264.891 182.875H269.391V205.961C269.391 208.523 268.82 210.656 267.68 212.359C266.539 214.062 265.023 215.344 263.133 216.203C261.258 217.047 259.219 217.469 257.016 217.469C254.703 217.469 252.609 217.047 250.734 216.203C248.875 215.344 247.398 214.062 246.305 212.359C245.227 210.656 244.688 208.523 244.688 205.961V182.875H249.164V205.961C249.164 207.742 249.492 209.211 250.148 210.367C250.805 211.523 251.719 212.383 252.891 212.945C254.078 213.508 255.453 213.789 257.016 213.789C258.594 213.789 259.969 213.508 261.141 212.945C262.328 212.383 263.25 211.523 263.906 210.367C264.562 209.211 264.891 207.742 264.891 205.961V182.875ZM290.602 210.273C290.602 209.648 290.461 209.07 290.18 208.539C289.914 207.992 289.359 207.5 288.516 207.062C287.688 206.609 286.438 206.219 284.766 205.891C283.359 205.594 282.086 205.242 280.945 204.836C279.82 204.43 278.859 203.938 278.062 203.359C277.281 202.781 276.68 202.102 276.258 201.32C275.836 200.539 275.625 199.625 275.625 198.578C275.625 197.578 275.844 196.633 276.281 195.742C276.734 194.852 277.367 194.062 278.18 193.375C279.008 192.688 280 192.148 281.156 191.758C282.312 191.367 283.602 191.172 285.023 191.172C287.055 191.172 288.789 191.531 290.227 192.25C291.664 192.969 292.766 193.93 293.531 195.133C294.297 196.32 294.68 197.641 294.68 199.094H290.344C290.344 198.391 290.133 197.711 289.711 197.055C289.305 196.383 288.703 195.828 287.906 195.391C287.125 194.953 286.164 194.734 285.023 194.734C283.82 194.734 282.844 194.922 282.094 195.297C281.359 195.656 280.82 196.117 280.477 196.68C280.148 197.242 279.984 197.836 279.984 198.461C279.984 198.93 280.062 199.352 280.219 199.727C280.391 200.086 280.688 200.422 281.109 200.734C281.531 201.031 282.125 201.312 282.891 201.578C283.656 201.844 284.633 202.109 285.82 202.375C287.898 202.844 289.609 203.406 290.953 204.062C292.297 204.719 293.297 205.523 293.953 206.477C294.609 207.43 294.938 208.586 294.938 209.945C294.938 211.055 294.703 212.07 294.234 212.992C293.781 213.914 293.117 214.711 292.242 215.383C291.383 216.039 290.352 216.555 289.148 216.93C287.961 217.289 286.625 217.469 285.141 217.469C282.906 217.469 281.016 217.07 279.469 216.273C277.922 215.477 276.75 214.445 275.953 213.18C275.156 211.914 274.758 210.578 274.758 209.172H279.117C279.18 210.359 279.523 211.305 280.148 212.008C280.773 212.695 281.539 213.188 282.445 213.484C283.352 213.766 284.25 213.906 285.141 213.906C286.328 213.906 287.32 213.75 288.117 213.438C288.93 213.125 289.547 212.695 289.969 212.148C290.391 211.602 290.602 210.977 290.602 210.273Z" fill="#3B2630"/>
</svg>
