{"asset":{"version":"2.0","generator":"VECTARY"},"nodes":[{"translation":[0.032000000000000015,0.10999999999999993,-0.0029999999999999645],"scale":[0.00015781323096669884,0.000021041764128893177,0.0003156023756649351],"rotation":[-2.7755575615628914e-16,-0.5735764363510458,5.551115123125783e-17,0.8191520442889919],"name":"Cone 1","mesh":0},{"translation":[-0.03199999999999997,0.10999999999999993,-0.0029999999999999645],"scale":[0.00015781323096669884,0.000021041764128893177,0.0003156023756649351],"rotation":[-2.7755575615628914e-16,0.5735764363510458,-5.551115123125783e-17,0.8191520442889919],"name":"Cone 2","mesh":1},{"translation":[-0.040000000000000015,0.10999999999999983,0.025000000000000022],"scale":[0.00026302205161116474,0.00002104176412889318,0.0003997630091755844],"rotation":[-0.8433914458128857,1.1102230246251565e-16,-0.5372996083468239,5.551115123125783e-17],"name":"Cone 3","mesh":2},{"translation":[0.039999999999999966,0.10999999999999985,0.025000000000000043],"scale":[0.00026302205161116463,0.000021041764128893174,0.00039976300917558437],"rotation":[1.6653345369377348e-16,0.8433914458128857,5.551115123125783e-17,-0.537299608346824],"name":"Cone 4","mesh":3},{"translation":[-4.440892098500626e-19,0.10999999999999996,-0.004999999999999978],"scale":[0.0009264753082172943,0.0009871475630169606,0.0009871475630169604],"rotation":[-6.123233995736767e-17,1,2.220446049250313e-16,0],"name":"Cone","mesh":4},{"translation":[0,0.10000000000000003,2.1316282072803006e-17],"scale":[0.0007971014492753622,0.0014492753623188406,0.0007246376811594202],"rotation":[-0.7071067811865474,0,0,0.7071067811865475],"name":"Sphere 1","mesh":5},{"translation":[0,0.10200000010074027,0.02500000000000005],"scale":[0.001,0.001,0.001],"rotation":[-0.7071067811865475,0,0,0.7071067811865476],"name":"Sphere - baked","mesh":6},{"translation":[0,0.102,0.03400000000000001],"scale":[0.001,0.0008000000000000001,0.0010000000000000002],"rotation":[-0.7071067811865475,0,0,0.7071067811865476],"name":"Sphere - baked 1","mesh":7},{"translation":[0,0.10200000010074027,0.022000000000000016],"scale":[0.0011764705882352942,0.001,0.001],"rotation":[-0.7071067811865475,0,0,0.7071067811865476],"name":"Sphere - baked 2","mesh":8}],"materials":[{"pbrMetallicRoughness":{"baseColorFactor":[0,0,0,1],"metallicFactor":0,"roughnessFactor":0.2},"name":"Bizarre 1","emissiveFactor":[0,0,0],"alphaMode":"OPAQUE","doubleSided":false},{"pbrMetallicRoughness":{"baseColorFactor":[0,0,0,1],"metallicFactor":0,"roughnessFactor":0.2},"name":"Bizarre 2","emissiveFactor":[0,0,0],"alphaMode":"OPAQUE","doubleSided":false},{"pbrMetallicRoughness":{"baseColorFactor":[0,0,0,1],"metallicFactor":0,"roughnessFactor":0.2},"name":"Bizarre 5","emissiveFactor":[0,0,0],"alphaMode":"OPAQUE","doubleSided":false},{"pbrMetallicRoughness":{"baseColorFactor":[0,0,0,1],"metallicFactor":0,"roughnessFactor":0.2},"name":"Bizarre 6","emissiveFactor":[0,0,0],"alphaMode":"OPAQUE","doubleSided":false},{"pbrMetallicRoughness":{"baseColorFactor":[0,0,0,1],"metallicFactor":0,"roughnessFactor":0.2},"name":"Bizarre 3","emissiveFactor":[0,0,0],"alphaMode":"OPAQUE","doubleSided":false},{"pbrMetallicRoughness":{"baseColorFactor":[0.00017512397750302672,0.00017512397750302672,0.00017512397750302672,1],"metallicFactor":0,"roughnessFactor":0.2},"name":"Bizarre 4","emissiveFactor":[0,0,0],"alphaMode":"OPAQUE","doubleSided":false},{"pbrMetallicRoughness":{"baseColorFactor":[0,0,0,1],"metallicFactor":0,"roughnessFactor":0.2},"name":"Bizarre 7","emissiveFactor":[0,0,0],"alphaMode":"OPAQUE","doubleSided":false},{"pbrMetallicRoughness":{"baseColorFactor":[0,0,0,1],"metallicFactor":0,"roughnessFactor":0.2},"name":"Bizarre 8","emissiveFactor":[0,0,0],"alphaMode":"OPAQUE","doubleSided":false},{"pbrMetallicRoughness":{"baseColorFactor":[0,0,0,1],"metallicFactor":0,"roughnessFactor":0.2},"name":"Bizarre 9","emissiveFactor":[0,0,0],"alphaMode":"OPAQUE","doubleSided":false}],"meshes":[{"primitives":[{"mode":4,"attributes":{"POSITION":1,"NORMAL":2},"material":0,"indices":0}]},{"primitives":[{"mode":4,"attributes":{"POSITION":4,"NORMAL":5},"material":1,"indices":3}]},{"primitives":[{"mode":4,"attributes":{"POSITION":7,"NORMAL":8},"material":2,"indices":6}]},{"primitives":[{"mode":4,"attributes":{"POSITION":10,"NORMAL":11},"material":3,"indices":9}]},{"primitives":[{"mode":4,"attributes":{"POSITION":13,"NORMAL":14},"material":4,"indices":12}]},{"primitives":[{"mode":4,"attributes":{"POSITION":16,"NORMAL":17},"material":5,"indices":15}]},{"primitives":[{"mode":4,"attributes":{"POSITION":19,"NORMAL":20},"material":6,"indices":18}]},{"primitives":[{"mode":4,"attributes":{"POSITION":22,"NORMAL":23},"material":7,"indices":21}]},{"primitives":[{"mode":4,"attributes":{"POSITION":25,"NORMAL":26},"material":8,"indices":24}]}],"accessors":[{"bufferView":0,"byteOffset":0,"componentType":5125,"count":4992,"type":"SCALAR"},{"bufferView":1,"byteOffset":0,"componentType":5126,"count":897,"max":[47.52382278442383,47.52382278442383,95.05572509765625],"min":[-47.52382278442383,-47.52382278442383,0],"type":"VEC3"},{"bufferView":2,"byteOffset":0,"componentType":5126,"count":897,"type":"VEC3"},{"bufferView":3,"byteOffset":0,"componentType":5125,"count":4992,"type":"SCALAR"},{"bufferView":4,"byteOffset":0,"componentType":5126,"count":897,"max":[47.52382278442383,47.52382278442383,95.05572509765625],"min":[-47.52382278442383,-47.52382278442383,0],"type":"VEC3"},{"bufferView":5,"byteOffset":0,"componentType":5126,"count":897,"type":"VEC3"},{"bufferView":6,"byteOffset":0,"componentType":5125,"count":4992,"type":"SCALAR"},{"bufferView":7,"byteOffset":0,"componentType":5126,"count":897,"max":[47.52382278442383,47.52382278442383,95.05572509765625],"min":[-47.52382278442383,-47.52382278442383,0],"type":"VEC3"},{"bufferView":8,"byteOffset":0,"componentType":5126,"count":897,"type":"VEC3"},{"bufferView":9,"byteOffset":0,"componentType":5125,"count":4992,"type":"SCALAR"},{"bufferView":10,"byteOffset":0,"componentType":5126,"count":897,"max":[47.52382278442383,47.52382278442383,95.05572509765625],"min":[-47.52382278442383,-47.52382278442383,0],"type":"VEC3"},{"bufferView":11,"byteOffset":0,"componentType":5126,"count":897,"type":"VEC3"},{"bufferView":12,"byteOffset":0,"componentType":5125,"count":4992,"type":"SCALAR"},{"bufferView":13,"byteOffset":0,"componentType":5126,"count":897,"max":[10.523712158203125,10.523712158203125,24.03441619873047],"min":[-10.523712158203125,-10.523712158203125,0],"type":"VEC3"},{"bufferView":14,"byteOffset":0,"componentType":5126,"count":897,"type":"VEC3"},{"bufferView":15,"byteOffset":0,"componentType":5125,"count":11904,"type":"SCALAR"},{"bufferView":16,"byteOffset":0,"componentType":5126,"count":1986,"max":[13.800000190734863,13.800000190734863,27.600000381469727],"min":[-13.800000190734863,-13.800000190734863,-1.9073486612342094e-7],"type":"VEC3"},{"bufferView":17,"byteOffset":0,"componentType":5126,"count":1986,"type":"VEC3"},{"bufferView":18,"byteOffset":0,"componentType":5125,"count":11904,"type":"SCALAR"},{"bufferView":19,"byteOffset":0,"componentType":5126,"count":2127,"max":[8.5,7.5,15],"min":[-8.5,-7.5,-5.5042043209244714e-15],"type":"VEC3"},{"bufferView":20,"byteOffset":0,"componentType":5126,"count":2127,"type":"VEC3"},{"bufferView":21,"byteOffset":0,"componentType":5125,"count":11904,"type":"SCALAR"},{"bufferView":22,"byteOffset":0,"componentType":5126,"count":2127,"max":[8.5,7.5,15],"min":[-8.5,-7.5,-5.5042043209244714e-15],"type":"VEC3"},{"bufferView":23,"byteOffset":0,"componentType":5126,"count":2127,"type":"VEC3"},{"bufferView":24,"byteOffset":0,"componentType":5125,"count":11904,"type":"SCALAR"},{"bufferView":25,"byteOffset":0,"componentType":5126,"count":2127,"max":[8.5,7.5,15],"min":[-8.5,-7.5,-5.5042043209244714e-15],"type":"VEC3"},{"bufferView":26,"byteOffset":0,"componentType":5126,"count":2127,"type":"VEC3"}],"bufferViews":[{"buffer":0,"byteOffset":0,"byteLength":19968,"target":34963},{"buffer":0,"byteOffset":19968,"byteLength":10764,"target":34962},{"buffer":0,"byteOffset":30732,"byteLength":10764,"target":34962},{"buffer":0,"byteOffset":41496,"byteLength":19968,"target":34963},{"buffer":0,"byteOffset":61464,"byteLength":10764,"target":34962},{"buffer":0,"byteOffset":72228,"byteLength":10764,"target":34962},{"buffer":0,"byteOffset":82992,"byteLength":19968,"target":34963},{"buffer":0,"byteOffset":102960,"byteLength":10764,"target":34962},{"buffer":0,"byteOffset":113724,"byteLength":10764,"target":34962},{"buffer":0,"byteOffset":124488,"byteLength":19968,"target":34963},{"buffer":0,"byteOffset":144456,"byteLength":10764,"target":34962},{"buffer":0,"byteOffset":155220,"byteLength":10764,"target":34962},{"buffer":0,"byteOffset":165984,"byteLength":19968,"target":34963},{"buffer":0,"byteOffset":185952,"byteLength":10764,"target":34962},{"buffer":0,"byteOffset":196716,"byteLength":10764,"target":34962},{"buffer":0,"byteOffset":207480,"byteLength":47616,"target":34963},{"buffer":0,"byteOffset":255096,"byteLength":23832,"target":34962},{"buffer":0,"byteOffset":278928,"byteLength":23832,"target":34962},{"buffer":0,"byteOffset":302760,"byteLength":47616,"target":34963},{"buffer":0,"byteOffset":350376,"byteLength":25524,"target":34962},{"buffer":0,"byteOffset":375900,"byteLength":25524,"target":34962},{"buffer":0,"byteOffset":401424,"byteLength":47616,"target":34963},{"buffer":0,"byteOffset":449040,"byteLength":25524,"target":34962},{"buffer":0,"byteOffset":474564,"byteLength":25524,"target":34962},{"buffer":0,"byteOffset":500088,"byteLength":47616,"target":34963},{"buffer":0,"byteOffset":547704,"byteLength":25524,"target":34962},{"buffer":0,"byteOffset":573228,"byteLength":25524,"target":34962}],"scene":0,"scenes":[{"nodes":[0,1,2,3,4,5,6,7,8],"name":"PolinaBee (clone)"}],"extensionsUsed":["KHR_texture_transform"],"buffers":[{"byteLength":598752,"uri":"PolinaBee(clone).bin"}]}