<svg width="400" height="402" viewBox="0 0 400 402" fill="none" xmlns="http://www.w3.org/2000/svg">
<path d="M187.465 7.26404C195.218 2.77128 204.782 2.77129 212.535 7.26405L360.74 93.1496C368.455 97.6206 373.205 105.863 373.205 114.78V286.713C373.205 295.63 368.455 303.872 360.74 308.343L212.535 394.228C204.782 398.721 195.218 398.721 187.465 394.228L39.26 308.343C31.5446 303.872 26.7949 295.63 26.7949 286.713V114.78C26.7949 105.863 31.5447 97.6206 39.26 93.1496L187.465 7.26404Z" fill="#DB8B47"/>
<path d="M97.7344 205.617H88.6172V201.938H97.7344C99.5 201.938 100.93 201.656 102.023 201.094C103.117 200.531 103.914 199.75 104.414 198.75C104.93 197.75 105.188 196.609 105.188 195.328C105.188 194.156 104.93 193.055 104.414 192.023C103.914 190.992 103.117 190.164 102.023 189.539C100.93 188.898 99.5 188.578 97.7344 188.578H89.6719V219H85.1484V184.875H97.7344C100.312 184.875 102.492 185.32 104.273 186.211C106.055 187.102 107.406 188.336 108.328 189.914C109.25 191.477 109.711 193.266 109.711 195.281C109.711 197.469 109.25 199.336 108.328 200.883C107.406 202.43 106.055 203.609 104.273 204.422C102.492 205.219 100.312 205.617 97.7344 205.617ZM113.297 206.602V206.062C113.297 204.234 113.562 202.539 114.094 200.977C114.625 199.398 115.391 198.031 116.391 196.875C117.391 195.703 118.602 194.797 120.023 194.156C121.445 193.5 123.039 193.172 124.805 193.172C126.586 193.172 128.188 193.5 129.609 194.156C131.047 194.797 132.266 195.703 133.266 196.875C134.281 198.031 135.055 199.398 135.586 200.977C136.117 202.539 136.383 204.234 136.383 206.062V206.602C136.383 208.43 136.117 210.125 135.586 211.688C135.055 213.25 134.281 214.617 133.266 215.789C132.266 216.945 131.055 217.852 129.633 218.508C128.227 219.148 126.633 219.469 124.852 219.469C123.07 219.469 121.469 219.148 120.047 218.508C118.625 217.852 117.406 216.945 116.391 215.789C115.391 214.617 114.625 213.25 114.094 211.688C113.562 210.125 113.297 208.43 113.297 206.602ZM117.633 206.062V206.602C117.633 207.867 117.781 209.062 118.078 210.188C118.375 211.297 118.82 212.281 119.414 213.141C120.023 214 120.781 214.68 121.688 215.18C122.594 215.664 123.648 215.906 124.852 215.906C126.039 215.906 127.078 215.664 127.969 215.18C128.875 214.68 129.625 214 130.219 213.141C130.812 212.281 131.258 211.297 131.555 210.188C131.867 209.062 132.023 207.867 132.023 206.602V206.062C132.023 204.812 131.867 203.633 131.555 202.523C131.258 201.398 130.805 200.406 130.195 199.547C129.602 198.672 128.852 197.984 127.945 197.484C127.055 196.984 126.008 196.734 124.805 196.734C123.617 196.734 122.57 196.984 121.664 197.484C120.773 197.984 120.023 198.672 119.414 199.547C118.82 200.406 118.375 201.398 118.078 202.523C117.781 203.633 117.633 204.812 117.633 206.062ZM146.531 183V219H142.172V183H146.531ZM158.203 193.641V219H153.844V193.641H158.203ZM153.516 186.914C153.516 186.211 153.727 185.617 154.148 185.133C154.586 184.648 155.227 184.406 156.07 184.406C156.898 184.406 157.531 184.648 157.969 185.133C158.422 185.617 158.648 186.211 158.648 186.914C158.648 187.586 158.422 188.164 157.969 188.648C157.531 189.117 156.898 189.352 156.07 189.352C155.227 189.352 154.586 189.117 154.148 188.648C153.727 188.164 153.516 187.586 153.516 186.914ZM169.5 199.055V219H165.164V193.641H169.266L169.5 199.055ZM168.469 205.359L166.664 205.289C166.68 203.555 166.938 201.953 167.438 200.484C167.938 199 168.641 197.711 169.547 196.617C170.453 195.523 171.531 194.68 172.781 194.086C174.047 193.477 175.445 193.172 176.977 193.172C178.227 193.172 179.352 193.344 180.352 193.688C181.352 194.016 182.203 194.547 182.906 195.281C183.625 196.016 184.172 196.969 184.547 198.141C184.922 199.297 185.109 200.711 185.109 202.383V219H180.75V202.336C180.75 201.008 180.555 199.945 180.164 199.148C179.773 198.336 179.203 197.75 178.453 197.391C177.703 197.016 176.781 196.828 175.688 196.828C174.609 196.828 173.625 197.055 172.734 197.508C171.859 197.961 171.102 198.586 170.461 199.383C169.836 200.18 169.344 201.094 168.984 202.125C168.641 203.141 168.469 204.219 168.469 205.359ZM206.648 214.664V201.609C206.648 200.609 206.445 199.742 206.039 199.008C205.648 198.258 205.055 197.68 204.258 197.273C203.461 196.867 202.477 196.664 201.305 196.664C200.211 196.664 199.25 196.852 198.422 197.227C197.609 197.602 196.969 198.094 196.5 198.703C196.047 199.312 195.82 199.969 195.82 200.672H191.484C191.484 199.766 191.719 198.867 192.188 197.977C192.656 197.086 193.328 196.281 194.203 195.562C195.094 194.828 196.156 194.25 197.391 193.828C198.641 193.391 200.031 193.172 201.562 193.172C203.406 193.172 205.031 193.484 206.438 194.109C207.859 194.734 208.969 195.68 209.766 196.945C210.578 198.195 210.984 199.766 210.984 201.656V213.469C210.984 214.312 211.055 215.211 211.195 216.164C211.352 217.117 211.578 217.938 211.875 218.625V219H207.352C207.133 218.5 206.961 217.836 206.836 217.008C206.711 216.164 206.648 215.383 206.648 214.664ZM207.398 203.625L207.445 206.672H203.062C201.828 206.672 200.727 206.773 199.758 206.977C198.789 207.164 197.977 207.453 197.32 207.844C196.664 208.234 196.164 208.727 195.82 209.32C195.477 209.898 195.305 210.578 195.305 211.359C195.305 212.156 195.484 212.883 195.844 213.539C196.203 214.195 196.742 214.719 197.461 215.109C198.195 215.484 199.094 215.672 200.156 215.672C201.484 215.672 202.656 215.391 203.672 214.828C204.688 214.266 205.492 213.578 206.086 212.766C206.695 211.953 207.023 211.164 207.07 210.398L208.922 212.484C208.812 213.141 208.516 213.867 208.031 214.664C207.547 215.461 206.898 216.227 206.086 216.961C205.289 217.68 204.336 218.281 203.227 218.766C202.133 219.234 200.898 219.469 199.523 219.469C197.805 219.469 196.297 219.133 195 218.461C193.719 217.789 192.719 216.891 192 215.766C191.297 214.625 190.945 213.352 190.945 211.945C190.945 210.586 191.211 209.391 191.742 208.359C192.273 207.312 193.039 206.445 194.039 205.758C195.039 205.055 196.242 204.523 197.648 204.164C199.055 203.805 200.625 203.625 202.359 203.625H207.398ZM231.07 184.875V219H226.617V184.875H231.07ZM242.039 184.875V188.578H215.672V184.875H242.039ZM254.625 219.469C252.859 219.469 251.258 219.172 249.82 218.578C248.398 217.969 247.172 217.117 246.141 216.023C245.125 214.93 244.344 213.633 243.797 212.133C243.25 210.633 242.977 208.992 242.977 207.211V206.227C242.977 204.164 243.281 202.328 243.891 200.719C244.5 199.094 245.328 197.719 246.375 196.594C247.422 195.469 248.609 194.617 249.938 194.039C251.266 193.461 252.641 193.172 254.062 193.172C255.875 193.172 257.438 193.484 258.75 194.109C260.078 194.734 261.164 195.609 262.008 196.734C262.852 197.844 263.477 199.156 263.883 200.672C264.289 202.172 264.492 203.812 264.492 205.594V207.539H245.555V204H260.156V203.672C260.094 202.547 259.859 201.453 259.453 200.391C259.062 199.328 258.438 198.453 257.578 197.766C256.719 197.078 255.547 196.734 254.062 196.734C253.078 196.734 252.172 196.945 251.344 197.367C250.516 197.773 249.805 198.383 249.211 199.195C248.617 200.008 248.156 201 247.828 202.172C247.5 203.344 247.336 204.695 247.336 206.227V207.211C247.336 208.414 247.5 209.547 247.828 210.609C248.172 211.656 248.664 212.578 249.305 213.375C249.961 214.172 250.75 214.797 251.672 215.25C252.609 215.703 253.672 215.93 254.859 215.93C256.391 215.93 257.688 215.617 258.75 214.992C259.812 214.367 260.742 213.531 261.539 212.484L264.164 214.57C263.617 215.398 262.922 216.188 262.078 216.938C261.234 217.688 260.195 218.297 258.961 218.766C257.742 219.234 256.297 219.469 254.625 219.469ZM279.703 215.906C280.734 215.906 281.688 215.695 282.562 215.273C283.438 214.852 284.156 214.273 284.719 213.539C285.281 212.789 285.602 211.938 285.68 210.984H289.805C289.727 212.484 289.219 213.883 288.281 215.18C287.359 216.461 286.148 217.5 284.648 218.297C283.148 219.078 281.5 219.469 279.703 219.469C277.797 219.469 276.133 219.133 274.711 218.461C273.305 217.789 272.133 216.867 271.195 215.695C270.273 214.523 269.578 213.18 269.109 211.664C268.656 210.133 268.43 208.516 268.43 206.812V205.828C268.43 204.125 268.656 202.516 269.109 201C269.578 199.469 270.273 198.117 271.195 196.945C272.133 195.773 273.305 194.852 274.711 194.18C276.133 193.508 277.797 193.172 279.703 193.172C281.688 193.172 283.422 193.578 284.906 194.391C286.391 195.188 287.555 196.281 288.398 197.672C289.258 199.047 289.727 200.609 289.805 202.359H285.68C285.602 201.312 285.305 200.367 284.789 199.523C284.289 198.68 283.602 198.008 282.727 197.508C281.867 196.992 280.859 196.734 279.703 196.734C278.375 196.734 277.258 197 276.352 197.531C275.461 198.047 274.75 198.75 274.219 199.641C273.703 200.516 273.328 201.492 273.094 202.57C272.875 203.633 272.766 204.719 272.766 205.828V206.812C272.766 207.922 272.875 209.016 273.094 210.094C273.312 211.172 273.68 212.148 274.195 213.023C274.727 213.898 275.438 214.602 276.328 215.133C277.234 215.648 278.359 215.906 279.703 215.906ZM299.016 183V219H294.68V183H299.016ZM297.984 205.359L296.18 205.289C296.195 203.555 296.453 201.953 296.953 200.484C297.453 199 298.156 197.711 299.062 196.617C299.969 195.523 301.047 194.68 302.297 194.086C303.562 193.477 304.961 193.172 306.492 193.172C307.742 193.172 308.867 193.344 309.867 193.688C310.867 194.016 311.719 194.547 312.422 195.281C313.141 196.016 313.688 196.969 314.062 198.141C314.438 199.297 314.625 200.711 314.625 202.383V219H310.266V202.336C310.266 201.008 310.07 199.945 309.68 199.148C309.289 198.336 308.719 197.75 307.969 197.391C307.219 197.016 306.297 196.828 305.203 196.828C304.125 196.828 303.141 197.055 302.25 197.508C301.375 197.961 300.617 198.586 299.977 199.383C299.352 200.18 298.859 201.094 298.5 202.125C298.156 203.141 297.984 204.219 297.984 205.359Z" fill="#3B2630"/>
</svg>
