<svg xmlns="http://www.w3.org/2000/svg" width="400" height="402" fill="none" viewBox="0 0 400 402"><path fill="#DB8B47" d="M187.465 7.26404C195.218 2.77128 204.782 2.77129 212.535 7.26405L360.74 93.1496C368.455 97.6206 373.205 105.863 373.205 114.78V286.713C373.205 295.63 368.455 303.872 360.74 308.343L212.535 394.228C204.782 398.721 195.218 398.721 187.465 394.228L39.26 308.343C31.5446 303.872 26.7949 295.63 26.7949 286.713V114.78C26.7949 105.863 31.5447 97.6206 39.26 93.1496L187.465 7.26404Z"/><path fill="#3B2630" d="M108.984 204.617H99.8672V200.938H108.984C110.75 200.938 112.18 200.656 113.273 200.094C114.367 199.531 115.164 198.75 115.664 197.75C116.18 196.75 116.438 195.609 116.438 194.328C116.438 193.156 116.18 192.055 115.664 191.023C115.164 189.992 114.367 189.164 113.273 188.539C112.18 187.898 110.75 187.578 108.984 187.578H100.922V218H96.3984V183.875H108.984C111.562 183.875 113.742 184.32 115.523 185.211C117.305 186.102 118.656 187.336 119.578 188.914C120.5 190.477 120.961 192.266 120.961 194.281C120.961 196.469 120.5 198.336 119.578 199.883C118.656 201.43 117.305 202.609 115.523 203.422C113.742 204.219 111.562 204.617 108.984 204.617ZM124.547 205.602V205.062C124.547 203.234 124.812 201.539 125.344 199.977C125.875 198.398 126.641 197.031 127.641 195.875C128.641 194.703 129.852 193.797 131.273 193.156C132.695 192.5 134.289 192.172 136.055 192.172C137.836 192.172 139.438 192.5 140.859 193.156C142.297 193.797 143.516 194.703 144.516 195.875C145.531 197.031 146.305 198.398 146.836 199.977C147.367 201.539 147.633 203.234 147.633 205.062V205.602C147.633 207.43 147.367 209.125 146.836 210.688C146.305 212.25 145.531 213.617 144.516 214.789C143.516 215.945 142.305 216.852 140.883 217.508C139.477 218.148 137.883 218.469 136.102 218.469C134.32 218.469 132.719 218.148 131.297 217.508C129.875 216.852 128.656 215.945 127.641 214.789C126.641 213.617 125.875 212.25 125.344 210.688C124.812 209.125 124.547 207.43 124.547 205.602ZM128.883 205.062V205.602C128.883 206.867 129.031 208.062 129.328 209.188C129.625 210.297 130.07 211.281 130.664 212.141C131.273 213 132.031 213.68 132.938 214.18C133.844 214.664 134.898 214.906 136.102 214.906C137.289 214.906 138.328 214.664 139.219 214.18C140.125 213.68 140.875 213 141.469 212.141C142.062 211.281 142.508 210.297 142.805 209.188C143.117 208.062 143.273 206.867 143.273 205.602V205.062C143.273 203.812 143.117 202.633 142.805 201.523C142.508 200.398 142.055 199.406 141.445 198.547C140.852 197.672 140.102 196.984 139.195 196.484C138.305 195.984 137.258 195.734 136.055 195.734C134.867 195.734 133.82 195.984 132.914 196.484C132.023 196.984 131.273 197.672 130.664 198.547C130.07 199.406 129.625 200.398 129.328 201.523C129.031 202.633 128.883 203.812 128.883 205.062ZM157.781 182V218H153.422V182H157.781ZM169.453 192.641V218H165.094V192.641H169.453ZM164.766 185.914C164.766 185.211 164.977 184.617 165.398 184.133C165.836 183.648 166.477 183.406 167.32 183.406C168.148 183.406 168.781 183.648 169.219 184.133C169.672 184.617 169.898 185.211 169.898 185.914C169.898 186.586 169.672 187.164 169.219 187.648C168.781 188.117 168.148 188.352 167.32 188.352C166.477 188.352 165.836 188.117 165.398 187.648C164.977 187.164 164.766 186.586 164.766 185.914ZM180.75 198.055V218H176.414V192.641H180.516L180.75 198.055ZM179.719 204.359L177.914 204.289C177.93 202.555 178.188 200.953 178.688 199.484C179.188 198 179.891 196.711 180.797 195.617C181.703 194.523 182.781 193.68 184.031 193.086C185.297 192.477 186.695 192.172 188.227 192.172C189.477 192.172 190.602 192.344 191.602 192.688C192.602 193.016 193.453 193.547 194.156 194.281C194.875 195.016 195.422 195.969 195.797 197.141C196.172 198.297 196.359 199.711 196.359 201.383V218H192V201.336C192 200.008 191.805 198.945 191.414 198.148C191.023 197.336 190.453 196.75 189.703 196.391C188.953 196.016 188.031 195.828 186.938 195.828C185.859 195.828 184.875 196.055 183.984 196.508C183.109 196.961 182.352 197.586 181.711 198.383C181.086 199.18 180.594 200.094 180.234 201.125C179.891 202.141 179.719 203.219 179.719 204.359ZM217.898 213.664V200.609C217.898 199.609 217.695 198.742 217.289 198.008C216.898 197.258 216.305 196.68 215.508 196.273C214.711 195.867 213.727 195.664 212.555 195.664C211.461 195.664 210.5 195.852 209.672 196.227C208.859 196.602 208.219 197.094 207.75 197.703C207.297 198.312 207.07 198.969 207.07 199.672H202.734C202.734 198.766 202.969 197.867 203.438 196.977C203.906 196.086 204.578 195.281 205.453 194.562C206.344 193.828 207.406 193.25 208.641 192.828C209.891 192.391 211.281 192.172 212.812 192.172C214.656 192.172 216.281 192.484 217.688 193.109C219.109 193.734 220.219 194.68 221.016 195.945C221.828 197.195 222.234 198.766 222.234 200.656V212.469C222.234 213.312 222.305 214.211 222.445 215.164C222.602 216.117 222.828 216.938 223.125 217.625V218H218.602C218.383 217.5 218.211 216.836 218.086 216.008C217.961 215.164 217.898 214.383 217.898 213.664ZM218.648 202.625L218.695 205.672H214.312C213.078 205.672 211.977 205.773 211.008 205.977C210.039 206.164 209.227 206.453 208.57 206.844C207.914 207.234 207.414 207.727 207.07 208.32C206.727 208.898 206.555 209.578 206.555 210.359C206.555 211.156 206.734 211.883 207.094 212.539C207.453 213.195 207.992 213.719 208.711 214.109C209.445 214.484 210.344 214.672 211.406 214.672C212.734 214.672 213.906 214.391 214.922 213.828C215.938 213.266 216.742 212.578 217.336 211.766C217.945 210.953 218.273 210.164 218.32 209.398L220.172 211.484C220.062 212.141 219.766 212.867 219.281 213.664C218.797 214.461 218.148 215.227 217.336 215.961C216.539 216.68 215.586 217.281 214.477 217.766C213.383 218.234 212.148 218.469 210.773 218.469C209.055 218.469 207.547 218.133 206.25 217.461C204.969 216.789 203.969 215.891 203.25 214.766C202.547 213.625 202.195 212.352 202.195 210.945C202.195 209.586 202.461 208.391 202.992 207.359C203.523 206.312 204.289 205.445 205.289 204.758C206.289 204.055 207.492 203.523 208.898 203.164C210.305 202.805 211.875 202.625 213.609 202.625H218.648ZM241.875 202.039H233.227L233.18 198.406H241.031C242.328 198.406 243.461 198.188 244.43 197.75C245.398 197.312 246.148 196.688 246.68 195.875C247.227 195.047 247.5 194.062 247.5 192.922C247.5 191.672 247.258 190.656 246.773 189.875C246.305 189.078 245.578 188.5 244.594 188.141C243.625 187.766 242.391 187.578 240.891 187.578H234.234V218H229.711V183.875H240.891C242.641 183.875 244.203 184.055 245.578 184.414C246.953 184.758 248.117 185.305 249.07 186.055C250.039 186.789 250.773 187.727 251.273 188.867C251.773 190.008 252.023 191.375 252.023 192.969C252.023 194.375 251.664 195.648 250.945 196.789C250.227 197.914 249.227 198.836 247.945 199.555C246.68 200.273 245.195 200.734 243.492 200.938L241.875 202.039ZM241.664 218H231.445L234 214.32H241.664C243.102 214.32 244.32 214.07 245.32 213.57C246.336 213.07 247.109 212.367 247.641 211.461C248.172 210.539 248.438 209.453 248.438 208.203C248.438 206.938 248.211 205.844 247.758 204.922C247.305 204 246.594 203.289 245.625 202.789C244.656 202.289 243.406 202.039 241.875 202.039H235.43L235.477 198.406H244.289L245.25 199.719C246.891 199.859 248.281 200.328 249.422 201.125C250.562 201.906 251.43 202.906 252.023 204.125C252.633 205.344 252.938 206.688 252.938 208.156C252.938 210.281 252.469 212.078 251.531 213.547C250.609 215 249.305 216.109 247.617 216.875C245.93 217.625 243.945 218 241.664 218ZM269.484 218.469C267.719 218.469 266.117 218.172 264.68 217.578C263.258 216.969 262.031 216.117 261 215.023C259.984 213.93 259.203 212.633 258.656 211.133C258.109 209.633 257.836 207.992 257.836 206.211V205.227C257.836 203.164 258.141 201.328 258.75 199.719C259.359 198.094 260.188 196.719 261.234 195.594C262.281 194.469 263.469 193.617 264.797 193.039C266.125 192.461 267.5 192.172 268.922 192.172C270.734 192.172 272.297 192.484 273.609 193.109C274.938 193.734 276.023 194.609 276.867 195.734C277.711 196.844 278.336 198.156 278.742 199.672C279.148 201.172 279.352 202.812 279.352 204.594V206.539H260.414V203H275.016V202.672C274.953 201.547 274.719 200.453 274.312 199.391C273.922 198.328 273.297 197.453 272.438 196.766C271.578 196.078 270.406 195.734 268.922 195.734C267.938 195.734 267.031 195.945 266.203 196.367C265.375 196.773 264.664 197.383 264.07 198.195C263.477 199.008 263.016 200 262.688 201.172C262.359 202.344 262.195 203.695 262.195 205.227V206.211C262.195 207.414 262.359 208.547 262.688 209.609C263.031 210.656 263.523 211.578 264.164 212.375C264.82 213.172 265.609 213.797 266.531 214.25C267.469 214.703 268.531 214.93 269.719 214.93C271.25 214.93 272.547 214.617 273.609 213.992C274.672 213.367 275.602 212.531 276.398 211.484L279.023 213.57C278.477 214.398 277.781 215.188 276.938 215.938C276.094 216.688 275.055 217.297 273.82 217.766C272.602 218.234 271.156 218.469 269.484 218.469ZM294.938 218.469C293.172 218.469 291.57 218.172 290.133 217.578C288.711 216.969 287.484 216.117 286.453 215.023C285.438 213.93 284.656 212.633 284.109 211.133C283.562 209.633 283.289 207.992 283.289 206.211V205.227C283.289 203.164 283.594 201.328 284.203 199.719C284.812 198.094 285.641 196.719 286.688 195.594C287.734 194.469 288.922 193.617 290.25 193.039C291.578 192.461 292.953 192.172 294.375 192.172C296.188 192.172 297.75 192.484 299.062 193.109C300.391 193.734 301.477 194.609 302.32 195.734C303.164 196.844 303.789 198.156 304.195 199.672C304.602 201.172 304.805 202.812 304.805 204.594V206.539H285.867V203H300.469V202.672C300.406 201.547 300.172 200.453 299.766 199.391C299.375 198.328 298.75 197.453 297.891 196.766C297.031 196.078 295.859 195.734 294.375 195.734C293.391 195.734 292.484 195.945 291.656 196.367C290.828 196.773 290.117 197.383 289.523 198.195C288.93 199.008 288.469 200 288.141 201.172C287.812 202.344 287.648 203.695 287.648 205.227V206.211C287.648 207.414 287.812 208.547 288.141 209.609C288.484 210.656 288.977 211.578 289.617 212.375C290.273 213.172 291.062 213.797 291.984 214.25C292.922 214.703 293.984 214.93 295.172 214.93C296.703 214.93 298 214.617 299.062 213.992C300.125 213.367 301.055 212.531 301.852 211.484L304.477 213.57C303.93 214.398 303.234 215.188 302.391 215.938C301.547 216.688 300.508 217.297 299.273 217.766C298.055 218.234 296.609 218.469 294.938 218.469Z"/></svg>